<svg width="25" height="24" viewBox="0 0 25 24" fill="none" xmlns="http://www.w3.org/2000/svg">
<path d="M12.4789 6C11.2817 6 10.3944 6.39 9.83099 6.99C9.26761 7.59 9.07042 8.34 9 8.91L10.4085 9.105C10.4648 8.73 10.5775 8.355 10.8451 8.07C11.1127 7.785 11.5352 7.5 12.4789 7.5C13.4085 7.5 13.9155 7.74 14.1972 8.01C14.4789 8.28 14.5915 8.61 14.5915 9C14.5915 10.245 14.1127 10.59 13.4085 11.25C12.7042 11.91 11.7746 12.87 11.7746 14.625V15H13.1831V14.625C13.1831 13.38 13.6197 13.035 14.3239 12.375C15.0282 11.715 16 10.755 16 9C16 8.28 15.7606 7.47 15.169 6.885C14.5634 6.3 13.662 6 12.4789 6ZM11.7746 16.5V18H13.1831V16.5H11.7746Z" fill="white"/>
<rect x="1" y="0.5" width="23" height="23" rx="11.5" stroke="white"/>
</svg>
