<svg width="386" height="58" viewBox="0 0 386 58" fill="none" xmlns="http://www.w3.org/2000/svg">
<path d="M35 8H366L331 58H0L35 8Z" fill="#001E27"/>
<path d="M21.4405 49.25L55.3905 0.75H384.56L350.61 49.25H21.4405Z" stroke="#00E3F5" stroke-width="1.5"/>
<path d="M64.792 31.24C65.4427 31.3787 65.9653 31.704 66.36 32.216C66.7547 32.7173 66.952 33.2933 66.952 33.944C66.952 34.8827 66.6213 35.6293 65.96 36.184C65.3093 36.728 64.3973 37 63.224 37H57.992V25.768H63.048C64.1893 25.768 65.08 26.0293 65.72 26.552C66.3707 27.0747 66.696 27.784 66.696 28.68C66.696 29.3413 66.52 29.8907 66.168 30.328C65.8267 30.7653 65.368 31.0693 64.792 31.24ZM60.728 30.312H62.52C62.968 30.312 63.3093 30.216 63.544 30.024C63.7893 29.8213 63.912 29.528 63.912 29.144C63.912 28.76 63.7893 28.4667 63.544 28.264C63.3093 28.0613 62.968 27.96 62.52 27.96H60.728V30.312ZM62.744 34.792C63.2027 34.792 63.5547 34.6907 63.8 34.488C64.056 34.2747 64.184 33.9707 64.184 33.576C64.184 33.1813 64.0507 32.872 63.784 32.648C63.528 32.424 63.1707 32.312 62.712 32.312H60.728V34.792H62.744ZM68.3149 32.52C68.3149 31.6027 68.4855 30.7973 68.8269 30.104C69.1789 29.4107 69.6535 28.8773 70.2509 28.504C70.8482 28.1307 71.5149 27.944 72.2509 27.944C72.8802 27.944 73.4295 28.072 73.8989 28.328C74.3789 28.584 74.7469 28.92 75.0029 29.336V28.072H77.7389V37H75.0029V35.736C74.7362 36.152 74.3629 36.488 73.8829 36.744C73.4135 37 72.8642 37.128 72.2349 37.128C71.5095 37.128 70.8482 36.9413 70.2509 36.568C69.6535 36.184 69.1789 35.6453 68.8269 34.952C68.4855 34.248 68.3149 33.4373 68.3149 32.52ZM75.0029 32.536C75.0029 31.8533 74.8109 31.3147 74.4269 30.92C74.0535 30.5253 73.5949 30.328 73.0509 30.328C72.5069 30.328 72.0429 30.5253 71.6589 30.92C71.2855 31.304 71.0989 31.8373 71.0989 32.52C71.0989 33.2027 71.2855 33.7467 71.6589 34.152C72.0429 34.5467 72.5069 34.744 73.0509 34.744C73.5949 34.744 74.0535 34.5467 74.4269 34.152C74.8109 33.7573 75.0029 33.2187 75.0029 32.536ZM81.4142 27.144C80.9342 27.144 80.5396 27.0053 80.2302 26.728C79.9316 26.44 79.7822 26.088 79.7822 25.672C79.7822 25.2453 79.9316 24.8933 80.2302 24.616C80.5396 24.328 80.9342 24.184 81.4142 24.184C81.8836 24.184 82.2676 24.328 82.5662 24.616C82.8756 24.8933 83.0302 25.2453 83.0302 25.672C83.0302 26.088 82.8756 26.44 82.5662 26.728C82.2676 27.0053 81.8836 27.144 81.4142 27.144ZM82.7742 28.072V37H80.0382V28.072H82.7742ZM90.357 37L88.645 34.52L87.205 37H84.245L87.189 32.44L84.165 28.072H87.237L88.949 30.536L90.389 28.072H93.349L90.357 32.568L93.429 37H90.357ZM103.219 32.392C103.219 32.648 103.203 32.9147 103.171 33.192H96.9792C97.0219 33.7467 97.1979 34.1733 97.5072 34.472C97.8272 34.76 98.2166 34.904 98.6752 34.904C99.3579 34.904 99.8326 34.616 100.099 34.04H103.011C102.862 34.6267 102.59 35.1547 102.195 35.624C101.811 36.0933 101.326 36.4613 100.739 36.728C100.153 36.9947 99.4966 37.128 98.7712 37.128C97.8966 37.128 97.1179 36.9413 96.4352 36.568C95.7526 36.1947 95.2192 35.6613 94.8352 34.968C94.4512 34.2747 94.2592 33.464 94.2592 32.536C94.2592 31.608 94.4459 30.7973 94.8192 30.104C95.2032 29.4107 95.7366 28.8773 96.4192 28.504C97.1019 28.1307 97.8859 27.944 98.7712 27.944C99.6352 27.944 100.403 28.1253 101.075 28.488C101.747 28.8507 102.27 29.368 102.643 30.04C103.027 30.712 103.219 31.496 103.219 32.392ZM100.419 31.672C100.419 31.2027 100.259 30.8293 99.9392 30.552C99.6192 30.2747 99.2192 30.136 98.7392 30.136C98.2806 30.136 97.8912 30.2693 97.5712 30.536C97.2619 30.8027 97.0699 31.1813 96.9952 31.672H100.419ZM108.149 32.52C108.149 31.6027 108.32 30.7973 108.661 30.104C109.013 29.4107 109.488 28.8773 110.085 28.504C110.683 28.1307 111.349 27.944 112.085 27.944C112.715 27.944 113.264 28.072 113.733 28.328C114.213 28.584 114.581 28.92 114.837 29.336V28.072H117.573V37H114.837V35.736C114.571 36.152 114.197 36.488 113.717 36.744C113.248 37 112.699 37.128 112.069 37.128C111.344 37.128 110.683 36.9413 110.085 36.568C109.488 36.184 109.013 35.6453 108.661 34.952C108.32 34.248 108.149 33.4373 108.149 32.52ZM114.837 32.536C114.837 31.8533 114.645 31.3147 114.261 30.92C113.888 30.5253 113.429 30.328 112.885 30.328C112.341 30.328 111.877 30.5253 111.493 30.92C111.12 31.304 110.933 31.8373 110.933 32.52C110.933 33.2027 111.12 33.7467 111.493 34.152C111.877 34.5467 112.341 34.744 112.885 34.744C113.429 34.744 113.888 34.5467 114.261 34.152C114.645 33.7573 114.837 33.2187 114.837 32.536ZM123.265 27.944C123.894 27.944 124.443 28.072 124.913 28.328C125.393 28.584 125.761 28.92 126.017 29.336V28.072H128.753V36.984C128.753 37.8053 128.587 38.5467 128.257 39.208C127.937 39.88 127.441 40.4133 126.769 40.808C126.107 41.2027 125.281 41.4 124.289 41.4C122.966 41.4 121.894 41.0853 121.073 40.456C120.251 39.8373 119.782 38.9947 119.665 37.928H122.369C122.454 38.2693 122.657 38.536 122.977 38.728C123.297 38.9307 123.691 39.032 124.161 39.032C124.726 39.032 125.174 38.8667 125.505 38.536C125.846 38.216 126.017 37.6987 126.017 36.984V35.72C125.75 36.136 125.382 36.4773 124.913 36.744C124.443 37 123.894 37.128 123.265 37.128C122.529 37.128 121.862 36.9413 121.265 36.568C120.667 36.184 120.193 35.6453 119.841 34.952C119.499 34.248 119.329 33.4373 119.329 32.52C119.329 31.6027 119.499 30.7973 119.841 30.104C120.193 29.4107 120.667 28.8773 121.265 28.504C121.862 28.1307 122.529 27.944 123.265 27.944ZM126.017 32.536C126.017 31.8533 125.825 31.3147 125.441 30.92C125.067 30.5253 124.609 30.328 124.065 30.328C123.521 30.328 123.057 30.5253 122.673 30.92C122.299 31.304 122.113 31.8373 122.113 32.52C122.113 33.2027 122.299 33.7467 122.673 34.152C123.057 34.5467 123.521 34.744 124.065 34.744C124.609 34.744 125.067 34.5467 125.441 34.152C125.825 33.7573 126.017 33.2187 126.017 32.536ZM135.116 37.128C134.241 37.128 133.452 36.9413 132.748 36.568C132.055 36.1947 131.505 35.6613 131.1 34.968C130.705 34.2747 130.508 33.464 130.508 32.536C130.508 31.6187 130.711 30.8133 131.116 30.12C131.521 29.416 132.076 28.8773 132.78 28.504C133.484 28.1307 134.273 27.944 135.148 27.944C136.023 27.944 136.812 28.1307 137.516 28.504C138.22 28.8773 138.775 29.416 139.18 30.12C139.585 30.8133 139.788 31.6187 139.788 32.536C139.788 33.4533 139.58 34.264 139.164 34.968C138.759 35.6613 138.199 36.1947 137.484 36.568C136.78 36.9413 135.991 37.128 135.116 37.128ZM135.116 34.76C135.639 34.76 136.081 34.568 136.444 34.184C136.817 33.8 137.004 33.2507 137.004 32.536C137.004 31.8213 136.823 31.272 136.46 30.888C136.108 30.504 135.671 30.312 135.148 30.312C134.615 30.312 134.172 30.504 133.82 30.888C133.468 31.2613 133.292 31.8107 133.292 32.536C133.292 33.2507 133.463 33.8 133.804 34.184C134.156 34.568 134.593 34.76 135.116 34.76ZM144.295 29.56C144.615 29.0693 145.015 28.6853 145.495 28.408C145.975 28.12 146.509 27.976 147.095 27.976V30.872H146.343C145.661 30.872 145.149 31.0213 144.807 31.32C144.466 31.608 144.295 32.12 144.295 32.856V37H141.559V28.072H144.295V29.56ZM148.179 32.52C148.179 31.6027 148.35 30.7973 148.691 30.104C149.043 29.4107 149.518 28.8773 150.115 28.504C150.713 28.1307 151.379 27.944 152.115 27.944C152.745 27.944 153.294 28.072 153.763 28.328C154.243 28.584 154.611 28.92 154.867 29.336V28.072H157.603V37H154.867V35.736C154.601 36.152 154.227 36.488 153.747 36.744C153.278 37 152.729 37.128 152.099 37.128C151.374 37.128 150.713 36.9413 150.115 36.568C149.518 36.184 149.043 35.6453 148.691 34.952C148.35 34.248 148.179 33.4373 148.179 32.52ZM154.867 32.536C154.867 31.8533 154.675 31.3147 154.291 30.92C153.918 30.5253 153.459 30.328 152.915 30.328C152.371 30.328 151.907 30.5253 151.523 30.92C151.15 31.304 150.963 31.8373 150.963 32.52C150.963 33.2027 151.15 33.7467 151.523 34.152C151.907 34.5467 152.371 34.744 152.915 34.744C153.459 34.744 153.918 34.5467 154.291 34.152C154.675 33.7573 154.867 33.2187 154.867 32.536ZM167.677 37.128C166.803 37.128 166.013 36.9413 165.309 36.568C164.616 36.1947 164.067 35.6613 163.661 34.968C163.267 34.2747 163.069 33.464 163.069 32.536C163.069 31.6187 163.272 30.8133 163.677 30.12C164.083 29.416 164.637 28.8773 165.341 28.504C166.045 28.1307 166.835 27.944 167.709 27.944C168.584 27.944 169.373 28.1307 170.077 28.504C170.781 28.8773 171.336 29.416 171.741 30.12C172.147 30.8133 172.349 31.6187 172.349 32.536C172.349 33.4533 172.141 34.264 171.725 34.968C171.32 35.6613 170.76 36.1947 170.045 36.568C169.341 36.9413 168.552 37.128 167.677 37.128ZM167.677 34.76C168.2 34.76 168.643 34.568 169.005 34.184C169.379 33.8 169.565 33.2507 169.565 32.536C169.565 31.8213 169.384 31.272 169.021 30.888C168.669 30.504 168.232 30.312 167.709 30.312C167.176 30.312 166.733 30.504 166.381 30.888C166.029 31.2613 165.853 31.8107 165.853 32.536C165.853 33.2507 166.024 33.8 166.365 34.184C166.717 34.568 167.155 34.76 167.677 34.76ZM180.775 28.072V37H178.039V28.072H180.775ZM181.271 25.848L177.415 27.464V25.576L181.271 23.72V25.848ZM188.732 27.976C189.777 27.976 190.609 28.3173 191.228 29C191.857 29.672 192.172 30.6 192.172 31.784V37H189.452V32.152C189.452 31.5547 189.297 31.0907 188.988 30.76C188.679 30.4293 188.263 30.264 187.74 30.264C187.217 30.264 186.801 30.4293 186.492 30.76C186.183 31.0907 186.028 31.5547 186.028 32.152V37H183.292V28.072H186.028V29.256C186.305 28.8613 186.679 28.552 187.148 28.328C187.617 28.0933 188.145 27.976 188.732 27.976ZM193.849 32.52C193.849 31.6027 194.02 30.7973 194.361 30.104C194.713 29.4107 195.188 28.8773 195.785 28.504C196.383 28.1307 197.049 27.944 197.785 27.944C198.372 27.944 198.905 28.0667 199.385 28.312C199.876 28.5573 200.26 28.888 200.537 29.304V25.16H203.273V37H200.537V35.72C200.281 36.1467 199.913 36.488 199.433 36.744C198.964 37 198.415 37.128 197.785 37.128C197.049 37.128 196.383 36.9413 195.785 36.568C195.188 36.184 194.713 35.6453 194.361 34.952C194.02 34.248 193.849 33.4373 193.849 32.52ZM200.537 32.536C200.537 31.8533 200.345 31.3147 199.961 30.92C199.588 30.5253 199.129 30.328 198.585 30.328C198.041 30.328 197.577 30.5253 197.193 30.92C196.82 31.304 196.633 31.8373 196.633 32.52C196.633 33.2027 196.82 33.7467 197.193 34.152C197.577 34.5467 198.041 34.744 198.585 34.744C199.129 34.744 199.588 34.5467 199.961 34.152C200.345 33.7573 200.537 33.2187 200.537 32.536ZM206.949 27.144C206.469 27.144 206.074 27.0053 205.765 26.728C205.466 26.44 205.317 26.088 205.317 25.672C205.317 25.2453 205.466 24.8933 205.765 24.616C206.074 24.328 206.469 24.184 206.949 24.184C207.418 24.184 207.802 24.328 208.101 24.616C208.41 24.8933 208.565 25.2453 208.565 25.672C208.565 26.088 208.41 26.44 208.101 26.728C207.802 27.0053 207.418 27.144 206.949 27.144ZM208.309 28.072V37H205.573V28.072H208.309ZM210.067 32.536C210.067 31.608 210.254 30.7973 210.627 30.104C211.011 29.4107 211.539 28.8773 212.211 28.504C212.894 28.1307 213.673 27.944 214.547 27.944C215.667 27.944 216.601 28.2373 217.347 28.824C218.105 29.4107 218.601 30.2373 218.835 31.304H215.923C215.678 30.6213 215.203 30.28 214.499 30.28C213.998 30.28 213.598 30.4773 213.299 30.872C213.001 31.256 212.851 31.8107 212.851 32.536C212.851 33.2613 213.001 33.8213 213.299 34.216C213.598 34.6 213.998 34.792 214.499 34.792C215.203 34.792 215.678 34.4507 215.923 33.768H218.835C218.601 34.8133 218.105 35.6347 217.347 36.232C216.59 36.8293 215.657 37.128 214.547 37.128C213.673 37.128 212.894 36.9413 212.211 36.568C211.539 36.1947 211.011 35.6613 210.627 34.968C210.254 34.2747 210.067 33.464 210.067 32.536ZM229.035 32.392C229.035 32.648 229.019 32.9147 228.987 33.192H222.795C222.838 33.7467 223.014 34.1733 223.323 34.472C223.643 34.76 224.032 34.904 224.491 34.904C225.174 34.904 225.648 34.616 225.915 34.04H228.827C228.678 34.6267 228.406 35.1547 228.011 35.624C227.627 36.0933 227.142 36.4613 226.555 36.728C225.968 36.9947 225.312 37.128 224.587 37.128C223.712 37.128 222.934 36.9413 222.251 36.568C221.568 36.1947 221.035 35.6613 220.651 34.968C220.267 34.2747 220.075 33.464 220.075 32.536C220.075 31.608 220.262 30.7973 220.635 30.104C221.019 29.4107 221.552 28.8773 222.235 28.504C222.918 28.1307 223.702 27.944 224.587 27.944C225.451 27.944 226.219 28.1253 226.891 28.488C227.563 28.8507 228.086 29.368 228.459 30.04C228.843 30.712 229.035 31.496 229.035 32.392ZM226.235 31.672C226.235 31.2027 226.075 30.8293 225.755 30.552C225.435 30.2747 225.035 30.136 224.555 30.136C224.096 30.136 223.707 30.2693 223.387 30.536C223.078 30.8027 222.886 31.1813 222.811 31.672H226.235ZM233.965 32.536C233.965 31.608 234.152 30.7973 234.525 30.104C234.909 29.4107 235.437 28.8773 236.109 28.504C236.792 28.1307 237.57 27.944 238.445 27.944C239.565 27.944 240.498 28.2373 241.245 28.824C242.002 29.4107 242.498 30.2373 242.733 31.304H239.821C239.576 30.6213 239.101 30.28 238.397 30.28C237.896 30.28 237.496 30.4773 237.197 30.872C236.898 31.256 236.749 31.8107 236.749 32.536C236.749 33.2613 236.898 33.8213 237.197 34.216C237.496 34.6 237.896 34.792 238.397 34.792C239.101 34.792 239.576 34.4507 239.821 33.768H242.733C242.498 34.8133 242.002 35.6347 241.245 36.232C240.488 36.8293 239.554 37.128 238.445 37.128C237.57 37.128 236.792 36.9413 236.109 36.568C235.437 36.1947 234.909 35.6613 234.525 34.968C234.152 34.2747 233.965 33.464 233.965 32.536ZM248.58 37.128C247.706 37.128 246.916 36.9413 246.212 36.568C245.519 36.1947 244.97 35.6613 244.564 34.968C244.17 34.2747 243.972 33.464 243.972 32.536C243.972 31.6187 244.175 30.8133 244.58 30.12C244.986 29.416 245.54 28.8773 246.244 28.504C246.948 28.1307 247.738 27.944 248.612 27.944C249.487 27.944 250.276 28.1307 250.98 28.504C251.684 28.8773 252.239 29.416 252.644 30.12C253.05 30.8133 253.252 31.6187 253.252 32.536C253.252 33.4533 253.044 34.264 252.628 34.968C252.223 35.6613 251.663 36.1947 250.948 36.568C250.244 36.9413 249.455 37.128 248.58 37.128ZM248.58 34.76C249.103 34.76 249.546 34.568 249.908 34.184C250.282 33.8 250.468 33.2507 250.468 32.536C250.468 31.8213 250.287 31.272 249.924 30.888C249.572 30.504 249.135 30.312 248.612 30.312C248.079 30.312 247.636 30.504 247.284 30.888C246.932 31.2613 246.756 31.8107 246.756 32.536C246.756 33.2507 246.927 33.8 247.268 34.184C247.62 34.568 248.058 34.76 248.58 34.76ZM266.416 27.976C267.525 27.976 268.405 28.312 269.056 28.984C269.717 29.656 270.048 30.5893 270.048 31.784V37H267.328V32.152C267.328 31.576 267.173 31.1333 266.864 30.824C266.565 30.504 266.149 30.344 265.616 30.344C265.083 30.344 264.661 30.504 264.352 30.824C264.053 31.1333 263.904 31.576 263.904 32.152V37H261.184V32.152C261.184 31.576 261.029 31.1333 260.72 30.824C260.421 30.504 260.005 30.344 259.472 30.344C258.939 30.344 258.517 30.504 258.208 30.824C257.909 31.1333 257.76 31.576 257.76 32.152V37H255.024V28.072H257.76V29.192C258.037 28.8187 258.4 28.5253 258.848 28.312C259.296 28.088 259.803 27.976 260.368 27.976C261.04 27.976 261.637 28.12 262.16 28.408C262.693 28.696 263.109 29.1067 263.408 29.64C263.717 29.1493 264.139 28.7493 264.672 28.44C265.205 28.1307 265.787 27.976 266.416 27.976ZM275.017 29.336C275.284 28.92 275.652 28.584 276.121 28.328C276.591 28.072 277.14 27.944 277.769 27.944C278.505 27.944 279.172 28.1307 279.769 28.504C280.367 28.8773 280.836 29.4107 281.177 30.104C281.529 30.7973 281.705 31.6027 281.705 32.52C281.705 33.4373 281.529 34.248 281.177 34.952C280.836 35.6453 280.367 36.184 279.769 36.568C279.172 36.9413 278.505 37.128 277.769 37.128C277.151 37.128 276.601 37 276.121 36.744C275.652 36.488 275.284 36.1573 275.017 35.752V41.256H272.281V28.072H275.017V29.336ZM278.921 32.52C278.921 31.8373 278.729 31.304 278.345 30.92C277.972 30.5253 277.508 30.328 276.953 30.328C276.409 30.328 275.945 30.5253 275.561 30.92C275.188 31.3147 275.001 31.8533 275.001 32.536C275.001 33.2187 275.188 33.7573 275.561 34.152C275.945 34.5467 276.409 34.744 276.953 34.744C277.497 34.744 277.961 34.5467 278.345 34.152C278.729 33.7467 278.921 33.2027 278.921 32.52ZM286.197 25.16V37H283.461V25.16H286.197ZM296.916 32.392C296.916 32.648 296.9 32.9147 296.868 33.192H290.676C290.718 33.7467 290.894 34.1733 291.204 34.472C291.524 34.76 291.913 34.904 292.372 34.904C293.054 34.904 293.529 34.616 293.796 34.04H296.708C296.558 34.6267 296.286 35.1547 295.892 35.624C295.508 36.0933 295.022 36.4613 294.436 36.728C293.849 36.9947 293.193 37.128 292.468 37.128C291.593 37.128 290.814 36.9413 290.132 36.568C289.449 36.1947 288.916 35.6613 288.532 34.968C288.148 34.2747 287.956 33.464 287.956 32.536C287.956 31.608 288.142 30.7973 288.516 30.104C288.9 29.4107 289.433 28.8773 290.116 28.504C290.798 28.1307 291.582 27.944 292.468 27.944C293.332 27.944 294.1 28.1253 294.772 28.488C295.444 28.8507 295.966 29.368 296.34 30.04C296.724 30.712 296.916 31.496 296.916 32.392ZM294.116 31.672C294.116 31.2027 293.956 30.8293 293.636 30.552C293.316 30.2747 292.916 30.136 292.436 30.136C291.977 30.136 291.588 30.2693 291.268 30.536C290.958 30.8027 290.766 31.1813 290.692 31.672H294.116ZM303.655 34.68V37H302.263C301.271 37 300.498 36.76 299.943 36.28C299.388 35.7893 299.111 34.9947 299.111 33.896V30.344H298.023V28.072H299.111V25.896H301.847V28.072H303.639V30.344H301.847V33.928C301.847 34.1947 301.911 34.3867 302.039 34.504C302.167 34.6213 302.38 34.68 302.679 34.68H303.655ZM309.563 37.128C308.688 37.128 307.899 36.9413 307.195 36.568C306.502 36.1947 305.952 35.6613 305.547 34.968C305.152 34.2747 304.955 33.464 304.955 32.536C304.955 31.6187 305.158 30.8133 305.563 30.12C305.968 29.416 306.523 28.8773 307.227 28.504C307.931 28.1307 308.72 27.944 309.595 27.944C310.47 27.944 311.259 28.1307 311.963 28.504C312.667 28.8773 313.222 29.416 313.627 30.12C314.032 30.8133 314.235 31.6187 314.235 32.536C314.235 33.4533 314.027 34.264 313.611 34.968C313.206 35.6613 312.646 36.1947 311.931 36.568C311.227 36.9413 310.438 37.128 309.563 37.128ZM309.563 34.76C310.086 34.76 310.528 34.568 310.891 34.184C311.264 33.8 311.451 33.2507 311.451 32.536C311.451 31.8213 311.27 31.272 310.907 30.888C310.555 30.504 310.118 30.312 309.595 30.312C309.062 30.312 308.619 30.504 308.267 30.888C307.915 31.2613 307.739 31.8107 307.739 32.536C307.739 33.2507 307.91 33.8 308.251 34.184C308.603 34.568 309.04 34.76 309.563 34.76Z" fill="white"/>
</svg>
