<svg width="257" height="58" viewBox="0 0 257 58" fill="none" xmlns="http://www.w3.org/2000/svg">
<path d="M35 8H238L203 58H0L35 8Z" fill="#00E2F4"/>
<path d="M21.4405 49.25L55.3905 0.75H255.56L221.61 49.25H21.4405Z" stroke="white" stroke-width="1.5"/>
<path d="M54.528 31.368C54.528 30.2587 54.768 29.272 55.248 28.408C55.728 27.5333 56.3947 26.856 57.248 26.376C58.112 25.8853 59.088 25.64 60.176 25.64C61.5093 25.64 62.6507 25.992 63.6 26.696C64.5493 27.4 65.184 28.36 65.504 29.576H62.496C62.272 29.1067 61.952 28.7493 61.536 28.504C61.1307 28.2587 60.6667 28.136 60.144 28.136C59.3013 28.136 58.6187 28.4293 58.096 29.016C57.5733 29.6027 57.312 30.3867 57.312 31.368C57.312 32.3493 57.5733 33.1333 58.096 33.72C58.6187 34.3067 59.3013 34.6 60.144 34.6C60.6667 34.6 61.1307 34.4773 61.536 34.232C61.952 33.9867 62.272 33.6293 62.496 33.16H65.504C65.184 34.376 64.5493 35.336 63.6 36.04C62.6507 36.7333 61.5093 37.08 60.176 37.08C59.088 37.08 58.112 36.84 57.248 36.36C56.3947 35.8693 55.728 35.192 55.248 34.328C54.768 33.464 54.528 32.4773 54.528 31.368ZM70.2355 25.16V37H67.4995V25.16H70.2355ZM73.9142 27.144C73.4342 27.144 73.0396 27.0053 72.7302 26.728C72.4316 26.44 72.2822 26.088 72.2822 25.672C72.2822 25.2453 72.4316 24.8933 72.7302 24.616C73.0396 24.328 73.4342 24.184 73.9142 24.184C74.3836 24.184 74.7676 24.328 75.0662 24.616C75.3756 24.8933 75.5302 25.2453 75.5302 25.672C75.5302 26.088 75.3756 26.44 75.0662 26.728C74.7676 27.0053 74.3836 27.144 73.9142 27.144ZM75.2742 28.072V37H72.5382V28.072H75.2742ZM77.033 32.552C77.033 31.6667 77.2143 30.8773 77.577 30.184C77.9503 29.4907 78.4463 28.952 79.065 28.568C79.6943 28.1733 80.377 27.976 81.113 27.976C81.6783 27.976 82.185 28.0773 82.633 28.28C83.081 28.472 83.4437 28.744 83.721 29.096V28.072H86.457V41.256H83.721V35.88C83.4117 36.2533 83.033 36.552 82.585 36.776C82.1477 37 81.6463 37.112 81.081 37.112C80.3557 37.112 79.6837 36.92 79.065 36.536C78.4463 36.152 77.9503 35.6133 77.577 34.92C77.2143 34.2267 77.033 33.4373 77.033 32.552ZM83.721 32.536C83.721 32.056 83.625 31.656 83.433 31.336C83.2517 31.0053 83.0117 30.76 82.713 30.6C82.4143 30.4293 82.0997 30.344 81.769 30.344C81.449 30.344 81.1397 30.4293 80.841 30.6C80.5423 30.76 80.297 31.0053 80.105 31.336C79.913 31.6667 79.817 32.072 79.817 32.552C79.817 33.032 79.913 33.4373 80.105 33.768C80.297 34.088 80.5423 34.3333 80.841 34.504C81.1397 34.664 81.449 34.744 81.769 34.744C82.089 34.744 82.3983 34.664 82.697 34.504C83.0063 34.3333 83.2517 34.0827 83.433 33.752C83.625 33.4213 83.721 33.016 83.721 32.536ZM97.5724 28.072V37H94.8364V35.784C94.559 36.1787 94.1804 36.4987 93.7004 36.744C93.231 36.9787 92.7084 37.096 92.1324 37.096C91.4497 37.096 90.847 36.9467 90.3244 36.648C89.8017 36.3387 89.3964 35.896 89.1084 35.32C88.8204 34.744 88.6764 34.0667 88.6764 33.288V28.072H91.3964V32.92C91.3964 33.5173 91.551 33.9813 91.8604 34.312C92.1697 34.6427 92.5857 34.808 93.1084 34.808C93.6417 34.808 94.063 34.6427 94.3724 34.312C94.6817 33.9813 94.8364 33.5173 94.8364 32.92V28.072H97.5724ZM108.274 32.392C108.274 32.648 108.258 32.9147 108.226 33.192H102.034C102.076 33.7467 102.252 34.1733 102.562 34.472C102.882 34.76 103.271 34.904 103.73 34.904C104.412 34.904 104.887 34.616 105.154 34.04H108.066C107.916 34.6267 107.644 35.1547 107.25 35.624C106.866 36.0933 106.38 36.4613 105.794 36.728C105.207 36.9947 104.551 37.128 103.826 37.128C102.951 37.128 102.172 36.9413 101.49 36.568C100.807 36.1947 100.274 35.6613 99.8896 34.968C99.5056 34.2747 99.3136 33.464 99.3136 32.536C99.3136 31.608 99.5003 30.7973 99.8736 30.104C100.258 29.4107 100.791 28.8773 101.474 28.504C102.156 28.1307 102.94 27.944 103.826 27.944C104.69 27.944 105.458 28.1253 106.13 28.488C106.802 28.8507 107.324 29.368 107.698 30.04C108.082 30.712 108.274 31.496 108.274 32.392ZM105.474 31.672C105.474 31.2027 105.314 30.8293 104.994 30.552C104.674 30.2747 104.274 30.136 103.794 30.136C103.335 30.136 102.946 30.2693 102.626 30.536C102.316 30.8027 102.124 31.1813 102.05 31.672H105.474ZM122.164 32.392C122.164 32.648 122.148 32.9147 122.116 33.192H115.924C115.966 33.7467 116.142 34.1733 116.452 34.472C116.772 34.76 117.161 34.904 117.62 34.904C118.302 34.904 118.777 34.616 119.044 34.04H121.956C121.806 34.6267 121.534 35.1547 121.14 35.624C120.756 36.0933 120.27 36.4613 119.684 36.728C119.097 36.9947 118.441 37.128 117.716 37.128C116.841 37.128 116.062 36.9413 115.38 36.568C114.697 36.1947 114.164 35.6613 113.78 34.968C113.396 34.2747 113.204 33.464 113.204 32.536C113.204 31.608 113.39 30.7973 113.764 30.104C114.148 29.4107 114.681 28.8773 115.364 28.504C116.046 28.1307 116.83 27.944 117.716 27.944C118.58 27.944 119.348 28.1253 120.02 28.488C120.692 28.8507 121.214 29.368 121.588 30.04C121.972 30.712 122.164 31.496 122.164 32.392ZM119.364 31.672C119.364 31.2027 119.204 30.8293 118.884 30.552C118.564 30.2747 118.164 30.136 117.684 30.136C117.225 30.136 116.836 30.2693 116.516 30.536C116.206 30.8027 116.014 31.1813 115.94 31.672H119.364ZM127.094 32.52C127.094 31.6027 127.264 30.7973 127.606 30.104C127.958 29.4107 128.432 28.8773 129.03 28.504C129.627 28.1307 130.294 27.944 131.03 27.944C131.659 27.944 132.208 28.072 132.678 28.328C133.158 28.584 133.526 28.92 133.782 29.336V28.072H136.518V37H133.782V35.736C133.515 36.152 133.142 36.488 132.662 36.744C132.192 37 131.643 37.128 131.014 37.128C130.288 37.128 129.627 36.9413 129.03 36.568C128.432 36.184 127.958 35.6453 127.606 34.952C127.264 34.248 127.094 33.4373 127.094 32.52ZM133.782 32.536C133.782 31.8533 133.59 31.3147 133.206 30.92C132.832 30.5253 132.374 30.328 131.83 30.328C131.286 30.328 130.822 30.5253 130.438 30.92C130.064 31.304 129.878 31.8373 129.878 32.52C129.878 33.2027 130.064 33.7467 130.438 34.152C130.822 34.5467 131.286 34.744 131.83 34.744C132.374 34.744 132.832 34.5467 133.206 34.152C133.59 33.7573 133.782 33.2187 133.782 32.536ZM138.273 32.536C138.273 31.608 138.46 30.7973 138.833 30.104C139.217 29.4107 139.745 28.8773 140.417 28.504C141.1 28.1307 141.878 27.944 142.753 27.944C143.873 27.944 144.806 28.2373 145.553 28.824C146.31 29.4107 146.806 30.2373 147.041 31.304H144.129C143.884 30.6213 143.409 30.28 142.705 30.28C142.204 30.28 141.804 30.4773 141.505 30.872C141.206 31.256 141.057 31.8107 141.057 32.536C141.057 33.2613 141.206 33.8213 141.505 34.216C141.804 34.6 142.204 34.792 142.705 34.792C143.409 34.792 143.884 34.4507 144.129 33.768H147.041C146.806 34.8133 146.31 35.6347 145.553 36.232C144.796 36.8293 143.862 37.128 142.753 37.128C141.878 37.128 141.1 36.9413 140.417 36.568C139.745 36.1947 139.217 35.6613 138.833 34.968C138.46 34.2747 138.273 33.464 138.273 32.536ZM157.24 32.392C157.24 32.648 157.224 32.9147 157.192 33.192H151C151.043 33.7467 151.219 34.1733 151.528 34.472C151.848 34.76 152.238 34.904 152.696 34.904C153.379 34.904 153.854 34.616 154.12 34.04H157.032C156.883 34.6267 156.611 35.1547 156.216 35.624C155.832 36.0933 155.347 36.4613 154.76 36.728C154.174 36.9947 153.518 37.128 152.792 37.128C151.918 37.128 151.139 36.9413 150.456 36.568C149.774 36.1947 149.24 35.6613 148.856 34.968C148.472 34.2747 148.28 33.464 148.28 32.536C148.28 31.608 148.467 30.7973 148.84 30.104C149.224 29.4107 149.758 28.8773 150.44 28.504C151.123 28.1307 151.907 27.944 152.792 27.944C153.656 27.944 154.424 28.1253 155.096 28.488C155.768 28.8507 156.291 29.368 156.664 30.04C157.048 30.712 157.24 31.496 157.24 32.392ZM154.44 31.672C154.44 31.2027 154.28 30.8293 153.96 30.552C153.64 30.2747 153.24 30.136 152.76 30.136C152.302 30.136 151.912 30.2693 151.592 30.536C151.283 30.8027 151.091 31.1813 151.016 31.672H154.44ZM162.636 37.128C161.857 37.128 161.164 36.9947 160.556 36.728C159.948 36.4613 159.468 36.0987 159.116 35.64C158.764 35.1707 158.567 34.648 158.524 34.072H161.228C161.26 34.3813 161.404 34.632 161.66 34.824C161.916 35.016 162.231 35.112 162.604 35.112C162.945 35.112 163.207 35.048 163.388 34.92C163.58 34.7813 163.676 34.6053 163.676 34.392C163.676 34.136 163.543 33.9493 163.276 33.832C163.009 33.704 162.577 33.5653 161.98 33.416C161.34 33.2667 160.807 33.112 160.38 32.952C159.953 32.7813 159.585 32.52 159.276 32.168C158.967 31.8053 158.812 31.32 158.812 30.712C158.812 30.2 158.951 29.736 159.228 29.32C159.516 28.8933 159.932 28.5573 160.476 28.312C161.031 28.0667 161.687 27.944 162.444 27.944C163.564 27.944 164.444 28.2213 165.084 28.776C165.735 29.3307 166.108 30.0667 166.204 30.984H163.676C163.633 30.6747 163.495 30.4293 163.26 30.248C163.036 30.0667 162.737 29.976 162.364 29.976C162.044 29.976 161.799 30.04 161.628 30.168C161.457 30.2853 161.372 30.4507 161.372 30.664C161.372 30.92 161.505 31.112 161.772 31.24C162.049 31.368 162.476 31.496 163.052 31.624C163.713 31.7947 164.252 31.9653 164.668 32.136C165.084 32.296 165.447 32.5627 165.756 32.936C166.076 33.2987 166.241 33.7893 166.252 34.408C166.252 34.9307 166.103 35.4 165.804 35.816C165.516 36.2213 165.095 36.5413 164.54 36.776C163.996 37.0107 163.361 37.128 162.636 37.128ZM171.878 37.128C171.099 37.128 170.406 36.9947 169.798 36.728C169.19 36.4613 168.71 36.0987 168.358 35.64C168.006 35.1707 167.808 34.648 167.766 34.072H170.47C170.502 34.3813 170.646 34.632 170.902 34.824C171.158 35.016 171.472 35.112 171.846 35.112C172.187 35.112 172.448 35.048 172.63 34.92C172.822 34.7813 172.918 34.6053 172.918 34.392C172.918 34.136 172.784 33.9493 172.518 33.832C172.251 33.704 171.819 33.5653 171.222 33.416C170.582 33.2667 170.048 33.112 169.622 32.952C169.195 32.7813 168.827 32.52 168.518 32.168C168.208 31.8053 168.054 31.32 168.054 30.712C168.054 30.2 168.192 29.736 168.47 29.32C168.758 28.8933 169.174 28.5573 169.718 28.312C170.272 28.0667 170.928 27.944 171.686 27.944C172.806 27.944 173.686 28.2213 174.326 28.776C174.976 29.3307 175.35 30.0667 175.446 30.984H172.918C172.875 30.6747 172.736 30.4293 172.502 30.248C172.278 30.0667 171.979 29.976 171.606 29.976C171.286 29.976 171.04 30.04 170.87 30.168C170.699 30.2853 170.614 30.4507 170.614 30.664C170.614 30.92 170.747 31.112 171.014 31.24C171.291 31.368 171.718 31.496 172.294 31.624C172.955 31.7947 173.494 31.9653 173.91 32.136C174.326 32.296 174.688 32.5627 174.998 32.936C175.318 33.2987 175.483 33.7893 175.494 34.408C175.494 34.9307 175.344 35.4 175.046 35.816C174.758 36.2213 174.336 36.5413 173.782 36.776C173.238 37.0107 172.603 37.128 171.878 37.128ZM185.904 32.392C185.904 32.648 185.888 32.9147 185.856 33.192H179.664C179.706 33.7467 179.882 34.1733 180.192 34.472C180.512 34.76 180.901 34.904 181.36 34.904C182.042 34.904 182.517 34.616 182.784 34.04H185.696C185.546 34.6267 185.274 35.1547 184.88 35.624C184.496 36.0933 184.01 36.4613 183.424 36.728C182.837 36.9947 182.181 37.128 181.456 37.128C180.581 37.128 179.802 36.9413 179.12 36.568C178.437 36.1947 177.904 35.6613 177.52 34.968C177.136 34.2747 176.944 33.464 176.944 32.536C176.944 31.608 177.13 30.7973 177.504 30.104C177.888 29.4107 178.421 28.8773 179.104 28.504C179.786 28.1307 180.57 27.944 181.456 27.944C182.32 27.944 183.088 28.1253 183.76 28.488C184.432 28.8507 184.954 29.368 185.328 30.04C185.712 30.712 185.904 31.496 185.904 32.392ZM183.104 31.672C183.104 31.2027 182.944 30.8293 182.624 30.552C182.304 30.2747 181.904 30.136 181.424 30.136C180.965 30.136 180.576 30.2693 180.256 30.536C179.946 30.8027 179.754 31.1813 179.68 31.672H183.104Z" fill="#001E27"/>
</svg>
