<svg width="37" height="37" viewBox="0 0 37 37" fill="none" xmlns="http://www.w3.org/2000/svg">
<path fill-rule="evenodd" clip-rule="evenodd" d="M11.5625 5.625C8.28331 5.625 5.625 8.28331 5.625 11.5625V25.4375C5.625 28.7167 8.28331 31.375 11.5625 31.375H25.4375C28.7167 31.375 31.375 28.7167 31.375 25.4375V11.5625C31.375 8.28331 28.7167 5.625 25.4375 5.625H11.5625ZM3.625 11.5625C3.625 7.17874 7.17874 3.625 11.5625 3.625H25.4375C29.8213 3.625 33.375 7.17874 33.375 11.5625V25.4375C33.375 29.8213 29.8213 33.375 25.4375 33.375H11.5625C7.17874 33.375 3.625 29.8213 3.625 25.4375V11.5625ZM19.2579 13.3892C18.1829 13.2298 17.085 13.4134 16.1204 13.914C15.1558 14.4145 14.3735 15.2064 13.885 16.1771C13.3964 17.1478 13.2263 18.2479 13.399 19.3208C13.5716 20.3938 14.0782 21.3849 14.8466 22.1534C15.6151 22.9218 16.6062 23.4284 17.6792 23.601C18.7521 23.7737 19.8522 23.6036 20.8229 23.115C21.7936 22.6265 22.5855 21.8442 23.086 20.8796C23.5866 19.915 23.7702 18.8171 23.6108 17.7421C23.4482 16.6456 22.9372 15.6305 22.1534 14.8466C21.3695 14.0628 20.3544 13.5518 19.2579 13.3892ZM15.1992 12.1387C16.5373 11.4444 18.0601 11.1897 19.5512 11.4109C21.0722 11.6364 22.4803 12.3451 23.5676 13.4324C24.6549 14.5197 25.3636 15.9278 25.5891 17.4488C25.8103 18.9399 25.5556 20.4627 24.8613 21.8008C24.167 23.1388 23.0685 24.2238 21.7221 24.9015C20.3756 25.5792 18.8497 25.8151 17.3614 25.5756C15.8732 25.3362 14.4983 24.6335 13.4324 23.5676C12.3665 22.5017 11.6638 21.1268 11.4244 19.6386C11.1849 18.1503 11.4208 16.6244 12.0985 15.2779C12.7762 13.9315 13.8612 12.833 15.1992 12.1387ZM26.871 9.02083C26.3187 9.02083 25.871 9.46855 25.871 10.0208C25.871 10.5731 26.3187 11.0208 26.871 11.0208H26.8864C27.4387 11.0208 27.8864 10.5731 27.8864 10.0208C27.8864 9.46855 27.4387 9.02083 26.8864 9.02083H26.871Z" fill="#00E2F4"/>
</svg>
