<svg width="30" height="30" viewBox="0 0 30 30" fill="none" xmlns="http://www.w3.org/2000/svg">
<path d="M15 18.75C17.0711 18.75 18.75 17.0711 18.75 15C18.75 12.9289 17.0711 11.25 15 11.25C12.9289 11.25 11.25 12.9289 11.25 15C11.25 17.0711 12.9289 18.75 15 18.75Z" fill="#D8FE00"/>
<path d="M10.6813 10.4931L8.95062 8.6875C7.28938 10.28 6.25 12.5169 6.25 15C6.25 17.4831 7.28938 19.72 8.95062 21.3125L10.6813 19.5069C9.49375 18.3681 8.75 16.7706 8.75 15C8.75 13.2294 9.49375 11.6312 10.6813 10.4931Z" fill="#D8FE00"/>
<path d="M21.0494 8.6875L19.3187 10.4931C20.5062 11.6319 21.25 13.2294 21.25 15C21.25 16.7706 20.5062 18.3681 19.3187 19.5069L21.0494 21.3125C22.7106 19.72 23.75 17.4831 23.75 15C23.75 12.5169 22.7106 10.28 21.0494 8.6875Z" fill="#D8FE00"/>
<path d="M7.22563 6.88818L5.48875 5.07568C2.87812 7.57818 1.25 11.0982 1.25 15.0001C1.25 18.9019 2.87812 22.4219 5.48875 24.9244L7.22563 23.1119C5.08875 21.0632 3.75 18.1876 3.75 15.0001C3.75 11.8126 5.08875 8.93693 7.22563 6.88818Z" fill="#D8FE00"/>
<path d="M24.5113 5.07568L22.7744 6.88818C24.9113 8.93693 26.25 11.8126 26.25 15.0001C26.25 18.1876 24.9113 21.0632 22.7744 23.1119L24.5113 24.9244C27.1219 22.4219 28.75 18.9019 28.75 15.0001C28.75 11.0982 27.1219 7.57818 24.5113 5.07568Z" fill="#D8FE00"/>
</svg>
