<svg width="37" height="37" viewBox="0 0 37 37" fill="none" xmlns="http://www.w3.org/2000/svg">
<path fill-rule="evenodd" clip-rule="evenodd" d="M5.625 7.70833C5.625 6.55774 6.55774 5.625 7.70833 5.625C8.85893 5.625 9.79167 6.55774 9.79167 7.70833C9.79167 8.85893 8.85893 9.79167 7.70833 9.79167C6.55774 9.79167 5.625 8.85893 5.625 7.70833ZM7.70833 3.625C5.45317 3.625 3.625 5.45317 3.625 7.70833C3.625 9.9635 5.45317 11.7917 7.70833 11.7917C9.9635 11.7917 11.7917 9.9635 11.7917 7.70833C11.7917 5.45317 9.9635 3.625 7.70833 3.625ZM23.8958 14.875C21.9145 14.875 20.0129 15.6675 18.6097 17.0805C17.2063 18.4937 16.4167 20.4119 16.4167 22.4135V31.375H20.5833V22.4135H21.5833C20.5833 22.4135 20.5833 22.413 20.5833 22.4125L20.5833 22.4114L20.5833 22.4092L20.5834 22.404L20.5835 22.3909C20.5836 22.3851 20.5838 22.3783 20.5839 22.3708C20.5841 22.3657 20.5842 22.3602 20.5844 22.3543C20.5854 22.3255 20.5871 22.2876 20.5903 22.2421C20.5966 22.1513 20.6088 22.028 20.6324 21.8825C20.6789 21.5964 20.7738 21.1991 20.9735 20.7894C21.1749 20.3763 21.4939 19.9291 21.9945 19.5868C22.5026 19.2393 23.1374 19.0417 23.8958 19.0417C24.6542 19.0417 25.2891 19.2393 25.7972 19.5868C26.2978 19.9291 26.6168 20.3763 26.8181 20.7894C27.0179 21.1991 27.1128 21.5964 27.1593 21.8825C27.1829 22.028 27.1951 22.1513 27.2014 22.2421C27.2046 22.2876 27.2063 22.3255 27.2072 22.3543C27.2077 22.3688 27.208 22.381 27.2081 22.3909L27.2083 22.404L27.2083 22.4092L27.2083 22.4114L27.2083 22.4125C27.2083 22.413 27.2083 22.4135 26.2083 22.4135H27.2083V31.375H31.375V22.4135C31.375 20.4119 30.5853 18.4937 29.1819 17.0805C27.7788 15.6675 25.8772 14.875 23.8958 14.875ZM22.5833 22.4205V32.375C22.5833 32.9273 22.1356 33.375 21.5833 33.375H15.4167C14.8644 33.375 14.4167 32.9273 14.4167 32.375V22.4135C14.4167 19.8859 15.4137 17.4606 17.1906 15.6712C18.9677 13.8816 21.3795 12.875 23.8958 12.875C26.4121 12.875 28.8239 13.8816 30.6011 15.6712C32.378 17.4606 33.375 19.8859 33.375 22.4135V32.375C33.375 32.9273 32.9273 33.375 32.375 33.375H26.2083C25.656 33.375 25.2083 32.9273 25.2083 32.375V22.4205L25.2083 22.4193C25.2081 22.4134 25.2076 22.4003 25.2062 22.381C25.2035 22.3421 25.1976 22.2801 25.1851 22.2033C25.1594 22.0447 25.1097 21.849 25.0204 21.6658C24.9327 21.4859 24.8181 21.3402 24.6683 21.2377C24.526 21.1405 24.2937 21.0417 23.8958 21.0417C23.498 21.0417 23.2656 21.1405 23.1234 21.2377C22.9736 21.3402 22.859 21.4859 22.7713 21.6658C22.682 21.849 22.6323 22.0447 22.6065 22.2033C22.594 22.2801 22.5881 22.3421 22.5854 22.381C22.5841 22.4003 22.5836 22.4134 22.5834 22.4193L22.5833 22.4205ZM3.625 15.4167C3.625 14.8644 4.07272 14.4167 4.625 14.4167H10.7917C11.344 14.4167 11.7917 14.8644 11.7917 15.4167V32.375C11.7917 32.9273 11.344 33.375 10.7917 33.375H4.625C4.07272 33.375 3.625 32.9273 3.625 32.375V15.4167ZM5.625 16.4167V31.375H9.79167V16.4167H5.625Z" fill="#00E2F4"/>
</svg>
