<svg width="37" height="37" viewBox="0 0 37 37" fill="none" xmlns="http://www.w3.org/2000/svg">
<path fill-rule="evenodd" clip-rule="evenodd" d="M16.9673 6.17561C18.6004 4.54248 20.8154 3.625 23.125 3.625H27.75C28.3023 3.625 28.75 4.07272 28.75 4.625V10.7917C28.75 11.344 28.3023 11.7917 27.75 11.7917H23.125C22.9814 11.7917 22.8436 11.8487 22.742 11.9503C22.6404 12.0519 22.5834 12.1897 22.5834 12.3333V14.4167H27.75C28.058 14.4167 28.3487 14.5585 28.5382 14.8013C28.7277 15.044 28.7948 15.3605 28.7202 15.6592L27.1785 21.8259C27.0672 22.271 26.6672 22.5833 26.2084 22.5833H22.5834V32.375C22.5834 32.9273 22.1356 33.375 21.5834 33.375H15.4167C14.8644 33.375 14.4167 32.9273 14.4167 32.375V22.5833H10.7917C10.2394 22.5833 9.79169 22.1356 9.79169 21.5833V15.4167C9.79169 14.8644 10.2394 14.4167 10.7917 14.4167H14.4167V12.3333C14.4167 10.0237 15.3342 7.80874 16.9673 6.17561ZM23.125 5.625C21.3459 5.625 19.6396 6.33177 18.3815 7.58983C17.1235 8.84788 16.4167 10.5542 16.4167 12.3333V15.4167C16.4167 15.969 15.969 16.4167 15.4167 16.4167H11.7917V20.5833H15.4167C15.969 20.5833 16.4167 21.031 16.4167 21.5833V31.375H20.5834V21.5833C20.5834 21.031 21.0311 20.5833 21.5834 20.5833H25.4276L26.4692 16.4167H21.5834C21.0311 16.4167 20.5834 15.969 20.5834 15.4167V12.3333C20.5834 11.6592 20.8511 11.0128 21.3278 10.5361C21.8044 10.0594 22.4509 9.79167 23.125 9.79167H26.75V5.625H23.125Z" fill="#00E2F4"/>
</svg>
